# xmcd
#
# Track frame offsets: 
#        150
#        22350
#        33878
#        47593
#        57979
#        71751
#        83732
#        95356
#        112390
#        126222
#        137419
#        151114
#        165244
#        173446
#        188977
#        204919
#        216573
#        239780
#        255338
#
# Disc length: 3464 seconds
#
# Revision: 0
# Processed by: cddbd v1.5.2PL0 Copyright (c) Steve Scherf et al.
# Submitted via: ExactAudioCopy v0.95b2
#
DISCID=080d8613
DTITLE=Various Artist - Dylan and Cash and The Nashville Cats CD 2
DYEAR=1900
DGENRE=Country
TTITLE0=Bob Dylan - Absolutely Sweet Marir
TTITLE1=Charlie McCoy and The Escorts - Harpoon Man
TTITLE2=Johnny Cash - It Ain't Me Babe
TTITLE3=Flatt and Scruggs - Down In The Flood
TTITLE4=Gordon Lightfood - The Way I Feel
TTITLE5=Bob Dylan - I'll Be Your Baby Tonight
TTITLE6=Byrds - You Ain't Going Nowhere
TTITLE7=Ian and Sylvia - Wheels On Fire
TTITLE8=Neil Young - Heart Of GolJohn Hartford - Gentle On My Mindd
TTITLE9=Monkees - Some Of Shelly's Blues
TTITLE10=Beau Brummels - Turn Around
TTITLE11=Tracy Nelson - I'm So Lonesome I Could Cry
TTITLE12=Kris Kristofferson - If You Don't Like Hank Williams
TTITLE13=Leonard Cohen - Bird On The Wire
TTITLE14=Byrds - Hickory Wind
TTITLE15=Country Joe Mcdonald - Blowing Down The Dusty Road
TTITLE16=Simon and Garfunkel - The Boxer
TTITLE17=Arca Code 615 - Stone Fox Chase
TTITLE18=Byrds - Radio Spot Sweetheart Of The Rodeo 
EXTD=
EXTT0=
EXTT1=
EXTT2=
EXTT3=
EXTT4=
EXTT5=
EXTT6=
EXTT7=
EXTT8=
EXTT9=
EXTT10=
EXTT11=
EXTT12=
EXTT13=
EXTT14=
EXTT15=
EXTT16=
EXTT17=
EXTT18=
PLAYORDER=
